# xmcd
#
# Track frame offsets:
# 150
# 16379
# 27669
# 40853
# 55568
# 69630
# 83469
# 94781
#
# Disc length: 1442 seconds
#
#
# Revision: 1
# Processed by: cddbd v1.5.1PL0 Copyright (c) Steve Scherf et al.
# Submitted via: FreeRIP 2.70 
#
DISCID=5a05a008
DTITLE=Dr. Elmo - Grandma Got Run Over by a Reindeer
DYEAR=1998
DGENRE=
TTITLE0=Grandma Got Run Over by a Reindeer
TTITLE1=Grandma's Killer Fruitcake
TTITLE2=Feels Like Christmas
TTITLE3=Junk Bond Christmas Blues
TTITLE4=Send Me a Wife for Christmas
TTITLE5=Jingle Bells
TTITLE6=Christmas Won't be the Same Without Johnny
TTITLE7=Grandma's Spending Christmas with the Superstars
EXTD=
EXTT0=
EXTT1=
EXTT2=
EXTT3=
EXTT4=
EXTT5=
EXTT6=
EXTT7=
PLAYORDER=
